<svg  version="1.1" xmlns="http://www.w3.org/2000/svg" xmlns:xlink="http://www.w3.org/1999/xlink">
  <symbol id="user-icon" viewBox="0 0 32 32">
    <title>Shape</title>
    <desc>Created using Figma</desc>
    <g id="Canvas" transform="translate(-13050 4482)">
    <g id="Shape">
    <use xlink:href="#path0_fill" transform="translate(13050 -4481.92)" fill="#2C2C3D"/>
    </g>
    </g>
    <defs>
    <path id="path0_fill" fill-rule="evenodd" d="M 29.8145 0.0283203L 31.3936 0.00683594L 31.9395 0L 31.9199 2.104C 31.8945 2.50781 31.8594 2.91357 31.8154 3.31982C 31.8047 3.42285 31.792 3.52539 31.7783 3.62793L 31.7559 3.80322L 31.7383 3.94238L 31.7148 4.12988L 31.6631 4.51367C 31.6318 4.72266 31.5957 4.93018 31.5605 5.1377C 31.5283 5.32715 31.4971 5.5166 31.4609 5.70557C 31.4209 5.91992 31.376 6.1333 31.3311 6.34619L 31.3027 6.48682L 31.2598 6.69629L 31.208 6.92578C 28.4619 18.6948 18.6953 28.6729 6.46094 31.5981L 5.73438 31.7715L 6.22461 25.6772L 0 26.1782L 0.169922 25.4536C 3.41992 11.6221 15.8604 0.939453 29.7627 0.0327148L 29.8145 0.0283203ZM 12.2402 13.5659L 23.5918 2.21387C 13.3145 5.18848 4.7002 13.6162 1.63379 24.1724L 8.44336 17.3623L 6.98633 17.3623C 6.6875 17.3623 6.44434 17.1191 6.44434 16.8198C 6.44434 16.5205 6.6875 16.2778 6.98633 16.2778L 9.52832 16.2778L 11.1553 14.6504L 8.61328 14.6504C 8.51074 14.6504 8.41504 14.6221 8.33301 14.5723C 8.2832 14.542 8.23926 14.5039 8.20117 14.46C 8.17578 14.4302 8.1543 14.3979 8.13574 14.3633C 8.12109 14.3369 8.10938 14.3091 8.09961 14.2803C 8.08105 14.2261 8.07129 14.168 8.07129 14.1079C 8.07129 13.8086 8.31445 13.5659 8.61328 13.5659L 12.2402 13.5659ZM 8.03516 30.0444L 14.751 23.3291L 15.665 23.3291C 15.9648 23.3291 16.208 23.0859 16.208 22.7866C 16.208 22.5376 16.0361 22.3364 15.8066 22.2729L 16.9199 21.1592L 18.377 21.1592C 18.4795 21.1592 18.5752 21.1309 18.6572 21.0815C 18.8145 20.9868 18.9199 20.8145 18.9199 20.6172C 18.9199 20.3174 18.6768 20.0747 18.377 20.0747L 18.0049 20.0747L 29.7051 8.37402C 26.7314 18.4165 18.4424 26.876 8.03516 30.0444ZM 30.7422 3.16504C 30.7793 2.79883 30.8125 2.43213 30.8359 2.06396L 30.8379 1.87109L 20.2705 12.4385C 20.1641 12.5444 20.0254 12.5972 19.8867 12.5972C 19.7988 12.5972 19.7109 12.5757 19.6309 12.5332C 19.585 12.5088 19.542 12.4771 19.5029 12.4385C 19.291 12.2266 19.291 11.8838 19.5029 11.6714L 30.0664 1.10938L 29.8564 1.1123C 29.5352 1.13281 29.2158 1.16309 28.8965 1.19385L 28.7158 1.21143C 28.4648 1.23779 28.2139 1.27148 27.9629 1.30518L 27.6055 1.35205C 27.2803 1.39941 26.9541 1.45312 26.627 1.50781L 26.5371 1.52393C 26.2344 1.58496 25.9316 1.64453 25.6309 1.70996L 13.7734 13.5659L 15.6641 13.5659C 15.9629 13.5659 16.2061 13.8091 16.2061 14.1084C 16.2061 14.4077 15.9629 14.6509 15.6641 14.6509L 12.6885 14.6509L 11.0615 16.2778L 17.291 16.2778C 17.5127 16.2778 17.7041 16.4121 17.7881 16.6035C 17.8174 16.6699 17.833 16.7432 17.833 16.8203C 17.833 16.979 17.7646 17.1216 17.6562 17.2207C 17.5596 17.3091 17.4316 17.3628 17.291 17.3628L 9.97656 17.3628L 2.44727 24.8921L 7.40723 24.4932L 7.00098 29.5435L 13.2158 23.3291L 8.61328 23.3291C 8.31348 23.3291 8.07031 23.0864 8.07031 22.7871C 8.07031 22.4873 8.31348 22.2446 8.61328 22.2446L 14.2998 22.2446L 15.3848 21.1597L 12.4092 21.1597C 12.1094 21.1597 11.8662 20.917 11.8662 20.6177C 11.8662 20.3179 12.1094 20.0752 12.4092 20.0752L 16.4688 20.0752L 30.0449 6.49951C 30.1006 6.3999 30.1738 6.32031 30.2441 6.25879L 30.252 6.2207C 30.3213 5.89893 30.3848 5.57764 30.4424 5.25635L 30.4697 5.1001C 30.5215 4.80615 30.5684 4.51318 30.6104 4.22119L 30.6582 3.84766C 30.6885 3.62012 30.7178 3.3916 30.7422 3.16504Z"/>
    </defs>
  </symbol>
  <symbol id="logo-icon" viewBox="0 0 14 16">
    <title>Group</title>
    <desc>Created using Figma</desc>
    <g id="Canvas" transform="translate(-13840 4473)">
    <g id="Group">
    <g id="man-user">
    <g id="Shape">
    <use xlink:href="#path0_fill" transform="translate(13843.3 -4473)" fill="#FA0A80"/>
    </g>
    <g id="Shape">
    <use xlink:href="#path1_fill" transform="translate(13840 -4459.27)"/>
    </g>
    <g id="Shape">
    <use xlink:href="#path2_fill" transform="translate(13853.9 -4459.22)"/>
    </g>
    <g id="Shape">
    <use xlink:href="#path3_fill" transform="translate(13840 -4464.87)" fill="#FA0A80"/>
    </g>
    </g>
    </g>
    </g>
    <defs>
    <path id="path0_fill" d="M 3.66732 7.82505C 5.69259 7.82505 7.33454 6.07337 7.33454 3.91255C 7.33454 1.75168 6.79546 0 3.66732 0C 0.539182 0 0 1.75168 0 3.91255C 0 6.07337 1.64196 7.82505 3.66732 7.82505Z"/>
    <path id="path1_fill" d="M 0.0069282 0.5C 0.000928203 -0.472928 -0.0050718 0.225879 0.0069282 0.5L 0.0069282 0.5Z"/>
    <path id="path2_fill" d="M 0 0.5C 0.019 0.349307 0.0065 -0.545493 0 0.5L 0 0.5Z"/>
    <path id="path3_fill" d="M 13.8453 5.51575C 13.7774 1.75154 13.2177 0.678949 8.93476 0C 8.93476 0 8.33187 0.674789 6.92667 0.674789C 5.52146 0.674789 4.91848 0 4.91848 0C 0.682305 0.671543 0.0885799 1.72823 0.010513 5.39346C 0.00411152 5.69275 0.00114498 5.70848 0 5.67374C 0.000260223 5.73883 0.000572491 5.85925 0.000572491 6.06921C 0.000572491 6.06921 1.02023 7.87474 6.92667 7.87474C 12.833 7.87474 13.8528 6.06921 13.8528 6.06921C 13.8528 5.93431 13.8529 5.8405 13.853 5.77669C 13.8519 5.79817 13.8496 5.75653 13.8453 5.51575Z"/>
    </defs>
  </symbol>
</svg>
